<svg xmlns="http://www.w3.org/2000/svg" xml:space="preserve" width="120" height="120"><g transform="translate(-.052)"><rect width="18.879" height="23.335" x="50.56" y="48.333" rx="10.374" ry="5.187" style="fill:#000;fill-opacity:1;stroke-width:1.03741;stroke-linecap:round;stroke-linejoin:round"/><path d="M52.526 51.443S44.5 44.323 34.214 40.48c-10.286-3.843-23.51-10.399-25.093-2.6C7.54 45.68 7.2 50.991 6.973 57.21c-.226 6.216-.452 17.745 1.018 22.267 1.47 4.52 1.808 7.234 7.12 5.99s13.678-3.165 18.312-5.312 19.103-10.06 19.329-11.643c.226-1.582-.226-17.068-.226-17.068M67.579 51.443s8.025-7.12 18.311-10.964c10.286-3.843 23.51-10.399 25.093-2.6 1.583 7.8 1.922 13.112 2.148 19.33.226 6.216.452 17.745-1.017 22.267-1.47 4.52-1.809 7.234-7.121 5.99s-13.677-3.165-18.312-5.312c-4.634-2.148-19.102-10.06-19.328-11.643-.226-1.582.226-17.068.226-17.068" style="fill:#000;fill-opacity:1;stroke-linecap:round;stroke-linejoin:round"/></g></svg>
